<svg id="Camada_1" data-name="Camada 1" xmlns="http://www.w3.org/2000/svg" viewBox="0 0 192.65 186.05"><defs><style>.cls-1{fill:#a6a8ab;}.cls-2{fill:#6d6e70;}.cls-3{fill:#231f20;}.cls-4{fill:#38b7e1;}.cls-5{fill:#58595b;}</style></defs><title>icon3</title><g id="_Grupo_" data-name="&lt;Grupo&gt;"><path id="_Caminho_" data-name="&lt;Caminho&gt;" class="cls-1" d="M1824.46,1524.64a37.25,37.25,0,0,1,37.21-37.21c5.33,0,10-22.42,0-32.42a68.22,68.22,0,0,0-68.22,68.22v37.21h31v-35.79Z" transform="translate(-1793.45 -1455)"/><rect id="_Caminho_2" data-name="&lt;Caminho&gt;" class="cls-1" y="93.02" width="136.43" height="93.02"/><rect id="_Caminho_3" data-name="&lt;Caminho&gt;" class="cls-2" x="68.22" y="93.02" width="68.22" height="93.02"/><circle class="cls-3" cx="68.22" cy="141.82" r="16.99"/><rect id="_Caminho_4" data-name="&lt;Caminho&gt;" class="cls-4" x="1944.71" y="1484.01" width="28.35" height="18.6" transform="translate(-2275.64 367.52) rotate(-45)"/><rect id="_Caminho_5" data-name="&lt;Caminho&gt;" class="cls-4" x="1949.59" y="1569.97" width="18.6" height="28.35" transform="translate(-2339.86 394.12) rotate(-45)"/><rect id="_Caminho_6" data-name="&lt;Caminho&gt;" class="cls-4" x="164.3" y="74.42" width="28.35" height="18.6"/><path id="_Caminho_7" data-name="&lt;Caminho&gt;" class="cls-5" d="M1898.84,1523.22h31a68.22,68.22,0,0,0-68.22-68.22v32.42A37.25,37.25,0,0,1,1898.84,1523.22Z" transform="translate(-1793.45 -1455)"/></g></svg>