<svg id="Camada_1" data-name="Camada 1" xmlns="http://www.w3.org/2000/svg" viewBox="0 0 186.05 99.22"><defs><style>.cls-1{fill:#fff;}.cls-2{fill:#49c2d0;}.cls-3{fill:#38b7e1;}</style></defs><title>icon1</title><rect class="cls-1" x="1308.26" y="1552.84" width="3.77" height="3.81" transform="translate(-1393.31 1366.47) rotate(-90)"/><rect class="cls-1" x="1304.48" y="1549.07" width="3.77" height="3.81" transform="translate(-1393.33 1358.92) rotate(-90)"/><rect class="cls-1" x="1304.5" y="1545.28" width="3.77" height="3.81" transform="translate(-1389.52 1355.16) rotate(-90)"/><rect class="cls-1" x="1308.26" y="1541.5" width="3.77" height="3.81" transform="translate(-1381.97 1355.13) rotate(-90)"/><rect class="cls-1" x="1312.07" y="1541.48" width="3.77" height="3.81" transform="translate(-1378.15 1358.92) rotate(-90)"/><rect class="cls-1" x="1315.83" y="1541.5" width="3.77" height="3.81" transform="translate(-1374.4 1362.7) rotate(-90)"/><rect class="cls-1" x="1319.62" y="1545.27" width="3.77" height="3.81" transform="translate(-1374.38 1370.26) rotate(-90)"/><rect class="cls-1" x="1323.43" y="1545.27" width="3.77" height="3.81" transform="translate(-1370.58 1374.07) rotate(-90)"/><rect class="cls-1" x="1330.97" y="1545.27" width="3.77" height="3.81" transform="translate(-1363.03 1381.61) rotate(-90)"/><g id="_Grupo_" data-name="&lt;Grupo&gt;"><polygon id="_Caminho_" data-name="&lt;Caminho&gt;" class="cls-2" points="161.24 18.61 142.63 18.61 142.63 49.61 186.05 49.61 186.05 6.2 161.24 6.2 161.24 18.61"/><path id="_Caminho_composto_" data-name="&lt;Caminho composto&gt;" class="cls-3" d="M1148.72,1548a49.61,49.61,0,0,0,95.6,18.6h90.44v-37.21h-90.44A49.61,49.61,0,0,0,1148.72,1548Zm74.42,0a24.81,24.81,0,1,1-24.81-24.81A24.81,24.81,0,0,1,1223.13,1548Z" transform="translate(-1148.72 -1498.42)"/><path id="_Caminho_2" data-name="&lt;Caminho&gt;" class="cls-2" d="M1148.72,1548h24.81a24.81,24.81,0,1,1,49.61,0h111.63v-18.6h-90.44A49.61,49.61,0,0,0,1148.72,1548Z" transform="translate(-1148.72 -1498.42)"/></g></svg>