<svg id="Camada_1" data-name="Camada 1" xmlns="http://www.w3.org/2000/svg" viewBox="0 0 289.74 186.05"><defs><style>.cls-1{fill:#49c2d0;}.cls-2{fill:#38b7e1;}.cls-3{fill:#016c70;}.cls-4{fill:#cfebf1;}.cls-5{fill:#a6a8ab;}.cls-6{fill:#58595b;}.cls-7{fill:#6d6e70;}.cls-8{fill:#231f20;}</style></defs><title>icon2</title><g id="_Grupo_" data-name="&lt;Grupo&gt;"><g id="_Grupo_2" data-name="&lt;Grupo&gt;"><g id="_Grupo_3" data-name="&lt;Grupo&gt;"><rect id="_Caminho_" data-name="&lt;Caminho&gt;" class="cls-1" x="15.25" width="259.24" height="152.5"/><rect id="_Caminho_2" data-name="&lt;Caminho&gt;" class="cls-2" x="144.87" width="129.62" height="152.5"/><rect id="_Caminho_3" data-name="&lt;Caminho&gt;" class="cls-3" x="30.5" y="22.87" width="228.74" height="129.62"/><rect id="_Caminho_4" data-name="&lt;Caminho&gt;" x="144.87" y="22.87" width="114.37" height="129.62"/></g><rect id="_Caminho_5" data-name="&lt;Caminho&gt;" class="cls-4" y="144.87" width="289.74" height="30.5"/><rect id="_Caminho_6" data-name="&lt;Caminho&gt;" class="cls-1" x="144.87" y="144.87" width="144.87" height="30.5"/></g><g id="_Grupo_4" data-name="&lt;Grupo&gt;"><path id="_Caminho_7" data-name="&lt;Caminho&gt;" class="cls-5" d="M1529.28,1594v-28.68a21.09,21.09,0,1,1,42.18,0V1594h24.66V1564.8a45.75,45.75,0,0,0-91.5,0V1594h24.66Z" transform="translate(-1405.5 -1455)"/><path id="_Caminho_8" data-name="&lt;Caminho&gt;" class="cls-6" d="M1550.37,1519.05v25.2a21.09,21.09,0,0,1,21.09,21.09V1594h24.66V1564.8A45.75,45.75,0,0,0,1550.37,1519.05Z" transform="translate(-1405.5 -1455)"/><rect id="_Caminho_9" data-name="&lt;Caminho&gt;" class="cls-5" x="99.12" y="125.05" width="91.5" height="61"/><rect id="_Caminho_10" data-name="&lt;Caminho&gt;" class="cls-7" x="144.87" y="125.05" width="45.75" height="61"/><circle id="_Caminho_11" data-name="&lt;Caminho&gt;" class="cls-8" cx="144.87" cy="155.55" r="11.44"/></g></g></svg>