<?xml version="1.0" encoding="utf-8"?>
<!-- Generator: Adobe Illustrator 19.2.1, SVG Export Plug-In . SVG Version: 6.00 Build 0)  -->
<svg version="1.1" id="Camada_1" xmlns="http://www.w3.org/2000/svg" xmlns:xlink="http://www.w3.org/1999/xlink" x="0px" y="0px"
	 viewBox="0 0 186.1 99.2" style="enable-background:new 0 0 186.1 99.2;" xml:space="preserve">
<style type="text/css">
	.st0{fill:#FFFFFF;}
	.st1{fill:#33CCCC;}
	.st2{fill:#38B7E1;}
</style>
<title>icon1</title>
<rect x="159.5" y="54.4" class="st0" width="3.8" height="3.8"/>
<rect x="155.7" y="50.7" class="st0" width="3.8" height="3.8"/>
<rect x="155.8" y="46.9" class="st0" width="3.8" height="3.8"/>
<rect x="159.5" y="43.1" class="st0" width="3.8" height="3.8"/>
<rect x="163.3" y="43.1" class="st0" width="3.8" height="3.8"/>
<rect x="167.1" y="43.1" class="st0" width="3.8" height="3.8"/>
<rect x="170.9" y="46.9" class="st0" width="3.8" height="3.8"/>
<rect x="174.7" y="46.9" class="st0" width="3.8" height="3.8"/>
<rect x="182.2" y="46.9" class="st0" width="3.8" height="3.8"/>
<g id="_Grupo_">
	<polygon id="_Caminho_" class="st1" points="161.2,18.6 142.6,18.6 142.6,49.6 186.1,49.6 186.1,6.2 161.2,6.2 	"/>
	<path id="_Caminho_composto_" class="st2" d="M0,49.6C0,77,22.2,99.2,49.6,99.2c20.2,0,38.4-12.3,46-31H186V31H95.6
		C85.3,5.6,56.4-6.7,31,3.6C12.3,11.2,0,29.4,0,49.6z M74.4,49.6c0,13.7-11.1,24.8-24.8,24.8S24.8,63.3,24.8,49.6
		s11.1-24.8,24.8-24.8C63.3,24.8,74.4,35.9,74.4,49.6L74.4,49.6z"/>
	<path id="_Caminho_2" class="st1" d="M0,49.6h24.8c-0.3-13.7,10.6-25,24.3-25.3c13.7-0.3,25,10.6,25.3,24.3c0,0.3,0,0.7,0,1h111.6
		V31H95.6C85.3,5.6,56.4-6.7,31,3.6C12.3,11.1,0,29.3,0,49.6z"/>
</g>
</svg>
