<?xml version="1.0" encoding="UTF-8" standalone="no"?>
<svg width="676px" height="2460px" viewBox="0 0 676 2460" version="1.1" xmlns="http://www.w3.org/2000/svg" xmlns:xlink="http://www.w3.org/1999/xlink">
    <!-- Generator: Sketch 39.1 (31720) - http://www.bohemiancoding.com/sketch -->
    <title>Combined Shape</title>
    <desc>Created with Sketch.</desc>
    <defs>
        <path d="M658,514.981928 L658,16 L18,16 L18,880 L658,880 L658,842.236309 L613,842.236309 L613,792.554126 L635.5,792.554126 L613,792.554126 L613,742.871943 L658,742.871943 L658,614.346295 L613,614.346295 L613,564.664111 L635.5,564.664111 L613,564.664111 L613,514.981928 L658,514.981928 Z M658,1318.56239 L658,880 L18,880 L18,1622.78649 L18,2439.38202 L658,2439.38202 L658,2404.44265 L613,2404.44265 L613,2358.47616 L635.5,2358.47616 L613,2358.47616 L613,2312.50968 L658,2312.50968 L658,2193.59638 L613,2193.59638 L613,2147.62989 L635.5,2147.62989 L613,2147.62989 L613,2101.6634 L658,2101.6634 L658,1622.78649 L658,1606.19097 L613,1606.19097 L613,1562.52458 L635.5,1562.52458 L613,1562.52458 L613,1518.8582 L658,1518.8582 L658,1405.89516 L613,1405.89516 L613,1362.22877 L635.5,1362.22877 L613,1362.22877 L613,1318.56239 L658,1318.56239 Z M612,1640 L658,1640 L658,1685.96649 L612,1685.96649 L612,1640 Z M612,1685.96649 L658,1685.96649 L658,1731.93297 L612,1731.93297 L612,1685.96649 Z M612,1731.93297 L658,1731.93297 L658,1777.89946 L612,1777.89946 L612,1731.93297 Z M612,1777.89946 L658,1777.89946 L658,1823.86594 L612,1823.86594 L612,1777.89946 Z M566,1685.96649 L612,1685.96649 L612,1731.93297 L566,1731.93297 L566,1685.96649 Z M566,1731.93297 L612,1731.93297 L612,1777.89946 L566,1777.89946 L566,1731.93297 Z M567,2312.50968 L613,2312.50968 L613,2358.47616 L567,2358.47616 L567,2312.50968 Z M567,2147.62989 L613,2147.62989 L613,2193.59638 L567,2193.59638 L567,2147.62989 Z M612,880 L658,880 L658,923.666385 L612,923.666385 L612,880 Z M612,923.666385 L658,923.666385 L658,967.33277 L612,967.33277 L612,923.666385 Z M612,967.33277 L658,967.33277 L658,1010.99915 L612,1010.99915 L612,967.33277 Z M612,1010.99915 L658,1010.99915 L658,1054.66554 L612,1054.66554 L612,1010.99915 Z M566,923.666385 L612,923.666385 L612,967.33277 L566,967.33277 L566,923.666385 Z M566,967.33277 L612,967.33277 L612,1010.99915 L566,1010.99915 L566,967.33277 Z M567,1518.8582 L613,1518.8582 L613,1562.52458 L567,1562.52458 L567,1518.8582 Z M567,1362.22877 L613,1362.22877 L613,1405.89516 L567,1405.89516 L567,1362.22877 Z M612,16 L658,16 L658,65.6821833 L612,65.6821833 L612,16 Z M612,65.6821833 L658,65.6821833 L658,115.364367 L612,115.364367 L612,65.6821833 Z M612,115.364367 L658,115.364367 L658,165.04655 L612,165.04655 L612,115.364367 Z M612,165.04655 L658,165.04655 L658,214.728733 L612,214.728733 L612,165.04655 Z M566,65.6821833 L612,65.6821833 L612,115.364367 L566,115.364367 L566,65.6821833 Z M566,115.364367 L612,115.364367 L612,165.04655 L566,165.04655 L566,115.364367 Z M567,742.871943 L613,742.871943 L613,792.554126 L567,792.554126 L567,742.871943 Z M567,564.664111 L613,564.664111 L613,614.346295 L567,614.346295 L567,564.664111 Z" id="path-1"></path>
        <filter x="-50%" y="-50%" width="200%" height="200%" filterUnits="objectBoundingBox" id="filter-2">
            <feOffset dx="0" dy="2" in="SourceAlpha" result="shadowOffsetOuter1"></feOffset>
            <feGaussianBlur stdDeviation="9" in="shadowOffsetOuter1" result="shadowBlurOuter1"></feGaussianBlur>
            <feColorMatrix values="0 0 0 0 0   0 0 0 0 0   0 0 0 0 0  0 0 0 0.3 0" type="matrix" in="shadowBlurOuter1"></feColorMatrix>
        </filter>
    </defs>
    <g id="Page-1" stroke="none" stroke-width="1" fill="none" fill-rule="evenodd">
        <g id="Combined-Shape">
            <use fill="black" fill-opacity="1" filter="url(#filter-2)" xlink:href="#path-1"></use>
            <use fill="#B6B3B3" fill-rule="evenodd" xlink:href="#path-1"></use>
        </g>
    </g>
</svg>