<?xml version="1.0" encoding="UTF-8" standalone="no"?>
<svg width="780px" height="2471px" viewBox="0 0 780 2471" version="1.1" xmlns="http://www.w3.org/2000/svg" xmlns:xlink="http://www.w3.org/1999/xlink">
    <!-- Generator: Sketch 39.1 (31720) - http://www.bohemiancoding.com/sketch -->
    <title>Combined Shape</title>
    <desc>Created with Sketch.</desc>
    <defs>
        <path d="M119,847.618155 L119,892.966486 L73,892.966486 L73,847.618155 L73,798.554126 L119,798.554126 L119,847.618155 Z M119,866.5 L119,1646.19101 L119,2445.38202 L759,2445.38202 L759,1646.19101 L759,866.5 L759,22 L119,22 L119,866.5 Z M73,1646 L119,1646 L119,1691.96649 L73,1691.96649 L73,1646 Z M73,2153.62989 L119,2153.62989 L119,2199.59638 L73,2199.59638 L73,2153.62989 Z M73,1691.96649 L119,1691.96649 L119,1737.93297 L73,1737.93297 L73,1691.96649 Z M27,2153.62989 L73,2153.62989 L73,2199.59638 L27,2199.59638 L27,2153.62989 Z M73,1737.93297 L119,1737.93297 L119,1783.89946 L73,1783.89946 L73,1737.93297 Z M73,2318.50968 L119,2318.50968 L119,2364.47616 L73,2364.47616 L73,2318.50968 Z M73,1783.89946 L119,1783.89946 L119,1829.86594 L73,1829.86594 L73,1783.89946 Z M73,2364.47616 L119,2364.47616 L119,2410.44265 L73,2410.44265 L73,2364.47616 Z M27,1691.96649 L73,1691.96649 L73,1737.93297 L27,1737.93297 L27,1691.96649 Z M73,2107.6634 L119,2107.6634 L119,2153.62989 L73,2153.62989 L73,2107.6634 Z M27,1737.93297 L73,1737.93297 L73,1783.89946 L27,1783.89946 L27,1737.93297 Z M27,2318.50968 L73,2318.50968 L73,2364.47616 L27,2364.47616 L27,2318.50968 Z M73,1354.62989 L119,1354.62989 L119,1400.59638 L73,1400.59638 L73,1354.62989 Z M73,892.966486 L119,892.966486 L119,938.932972 L73,938.932972 L73,892.966486 Z M27,1354.62989 L73,1354.62989 L73,1400.59638 L27,1400.59638 L27,1354.62989 Z M73,938.932972 L119,938.932972 L119,984.899458 L73,984.899458 L73,938.932972 Z M73,1519.50968 L119,1519.50968 L119,1565.47616 L73,1565.47616 L73,1519.50968 Z M73,984.899458 L119,984.899458 L119,1030.86594 L73,1030.86594 L73,984.899458 Z M73,1565.47616 L119,1565.47616 L119,1611.44265 L73,1611.44265 L73,1565.47616 Z M27,892.966486 L73,892.966486 L73,938.932972 L27,938.932972 L27,892.966486 Z M73,1308.6634 L119,1308.6634 L119,1354.62989 L73,1354.62989 L73,1308.6634 Z M27,938.932972 L73,938.932972 L73,984.899458 L27,984.899458 L27,938.932972 Z M27,1519.50968 L73,1519.50968 L73,1565.47616 L27,1565.47616 L27,1519.50968 Z M73,22 L119,22 L119,71.6821833 L73,71.6821833 L73,22 Z M73,570.664111 L119,570.664111 L119,620.346295 L73,620.346295 L73,570.664111 Z M73,71.6821833 L119,71.6821833 L119,121.364367 L73,121.364367 L73,71.6821833 Z M27,570.664111 L73,570.664111 L73,620.346295 L27,620.346295 L27,570.664111 Z M73,121.364367 L119,121.364367 L119,171.04655 L73,171.04655 L73,121.364367 Z M73,748.871943 L119,748.871943 L119,798.554126 L73,798.554126 L73,748.871943 Z M73,171.04655 L119,171.04655 L119,220.728733 L73,220.728733 L73,171.04655 Z M27,71.6821833 L73,71.6821833 L73,121.364367 L27,121.364367 L27,71.6821833 Z M73,520.981928 L119,520.981928 L119,570.664111 L73,570.664111 L73,520.981928 Z M27,121.364367 L73,121.364367 L73,171.04655 L27,171.04655 L27,121.364367 Z M27,748.871943 L73,748.871943 L73,798.554126 L27,798.554126 L27,748.871943 Z" id="path-1"></path>
        <filter x="-50%" y="-50%" width="200%" height="200%" filterUnits="objectBoundingBox" id="filter-2">
            <feOffset dx="-3" dy="2" in="SourceAlpha" result="shadowOffsetOuter1"></feOffset>
            <feGaussianBlur stdDeviation="12" in="shadowOffsetOuter1" result="shadowBlurOuter1"></feGaussianBlur>
            <feColorMatrix values="0 0 0 0 0   0 0 0 0 0   0 0 0 0 0  0 0 0 0.3 0" type="matrix" in="shadowBlurOuter1"></feColorMatrix>
        </filter>
    </defs>
    <g id="Page-1" stroke="none" stroke-width="1" fill="none" fill-rule="evenodd">
        <g id="Combined-Shape">
            <use fill="black" fill-opacity="1" filter="url(#filter-2)" xlink:href="#path-1"></use>
            <use fill="#B6B2B2" fill-rule="evenodd" xlink:href="#path-1"></use>
        </g>
    </g>
</svg>